<svg width="14" height="24" viewBox="0 0 14 24" fill="none" xmlns="http://www.w3.org/2000/svg">
<path d="M6.54269 0C6.02298 0 5.60279 0.427266 5.60279 0.955727V20.7505L1.59991 16.7084C1.22948 16.3373 0.637894 16.3373 0.27299 16.714C-0.0919128 17.0907 -0.0919133 17.6922 0.278519 18.0632L5.87923 23.7245C6.06168 23.91 6.29942 24 6.54269 24C6.78596 24 7.0237 23.91 7.20615 23.7245L12.8124 18.0632C13.1828 17.6922 13.1828 17.085 12.8179 16.714C12.453 16.3373 11.8559 16.3373 11.491 16.7084L7.48259 20.7505V0.955727C7.48259 0.432888 7.0624 0 6.54269 0Z" fill="#312A2B"/>
</svg>
